<svg width="700pt" height="700pt" version="1.1" viewBox="0 0 700 700" xmlns="http://www.w3.org/2000/svg">
	<g>
		<path d="m292.32 436.8c-24.641 4.4805-49.281 9.5195-74.48 11.199-12.32 0.55859-24.641-3.9219-33.602-12.32-8.3984-7.8398-13.441-17.922-15.68-29.121-14.559 0.55859-29.68-6.1602-38.641-17.922-6.1602-8.3984-10.641-19.039-10.641-29.68v-128.8c0-14.559 5.6016-29.121 16.238-38.641 7.2812-6.7188 17.359-11.199 27.441-12.879 30.801-4.4805 61.602-10.078 91.84-14.559 1.1211 8.3984 1.6797 16.801 0 25.199-30.238 5.0391-60.48 10.078-90.719 14.559-11.199 2.2383-19.602 13.441-19.602 24.641v129.92c0 8.9609 4.4805 17.359 12.32 21.84 5.0391 2.8008 11.199 2.2383 16.238 1.6797 44.801-5.6016 89.039-14.559 133.28-24.078 26.879-6.1602 53.762-11.199 80.641-15.68 28.559-3.9219 57.68-7.2812 86.801-6.7188 12.879 0 22.398-12.32 22.398-24.641v-118.72c0-11.199-6.7188-23.52-18.48-25.762-35.84-2.8008-71.68-0.55859-106.96 3.9219-0.55859-8.3984-0.55859-16.801 0.55859-25.199 31.922-3.9219 63.84-6.7188 95.762-5.0391 7.2812 0.55859 15.121 0.55859 21.84 2.8008 11.199 3.9219 20.719 12.32 25.762 22.961 2.8008 5.0391 3.9219 10.078 5.6016 15.68 6.7188 0.55859 13.441 0.55859 19.039 3.3594 13.441 5.0391 22.961 16.801 27.441 30.801 2.2383 6.1602 2.8008 12.879 2.8008 19.602v117.6c0 12.32-5.0391 24.641-12.879 33.602-8.3984 10.078-21.84 15.68-34.719 15.121-39.199-1.1211-78.961 5.0391-117.6 11.762-36.961 8.3867-74.48 16.785-112 23.508zm13.441-27.441c30.238-5.6016 60.48-12.879 90.719-19.039 39.762-7.2812 80.078-13.441 120.4-13.441 4.4805 0 8.9609 0 12.879-1.6797 8.3984-3.9219 13.441-12.879 13.441-22.398v-119.84c0-7.8398-2.8008-15.68-8.3984-20.719-3.9219-3.9219-10.078-5.0391-15.121-5.6016v104.16c0 18.48-10.641 37.52-28 45.359-6.1602 2.8008-12.879 4.4805-19.602 3.9219-38.078-0.55859-75.602 4.4805-113.12 11.199-20.16 3.3594-40.32 8.3984-59.922 12.32-35.281 7.8398-70.559 14.559-106.4 19.602 1.1211 5.0391 3.3594 9.5195 7.2812 13.441 5.0391 5.0391 12.32 7.2812 19.039 6.1602 29.121-2.8047 58.242-7.8438 86.805-13.445z" />
		<path d="m187.6 357.84c-4.4805 0.55859-10.078 2.2383-14.559 0-5.6016-3.3594-4.4805-12.32 1.6797-14.559 17.922-2.8008 36.398-5.0391 54.32-8.3984 3.3594-0.55859 7.2812 0 9.5195 2.8008 3.3594 4.4805 1.1211 11.762-4.4805 12.879-15.684 3.3594-30.801 5.0391-46.48 7.2773z" />
		<path d="m320.88 310.24c-13.441 2.2383-28-2.2383-38.078-11.762-7.2812-6.7188-12.32-15.68-14-25.199-2.8008-14 1.6797-29.121 11.762-39.199 10.078-10.641 24.641-16.238 39.199-14 9.5195 1.1211 18.48 5.0391 25.762 11.762 11.762 11.199 16.801 29.121 12.879 44.801-5.043 17.918-20.723 30.801-37.523 33.598zm-1.6797-16.238c8.3984-1.6797 16.238-6.7188 20.719-14.559 4.4805-8.3984 5.0391-19.602 0.55859-28-5.6016-10.641-17.922-17.359-29.68-15.121-15.68 1.6797-28 16.801-25.762 32.48 0.55859 8.3984 5.6016 16.801 12.879 21.281 5.6055 3.918 14.008 5.5977 21.285 3.918z" />
		<path d="m409.92 204.96c-2.2383 0-3.9219 0.55859-6.1602 0-4.4805-1.6797-6.7188-7.2812-4.4805-11.762 1.1211-2.8008 3.9219-4.4805 7.2812-4.4805 17.922-1.1211 35.84-1.6797 53.762-1.1211 4.4805 0 7.8398 3.9219 8.3984 8.3984 0.55859 5.0391-4.4805 8.9609-8.9609 8.3984-16.801-1.1133-33.602-1.1133-49.84 0.56641z" />
		<path d="m319.76 197.12c-1.6797 2.8008-5.0391 5.0391-8.3984 4.4805-4.4805-0.55859-8.3984-5.0391-8.3984-9.5195v-88.48c-7.2812 6.7188-14 13.441-21.281 20.16-3.3594 3.3594-8.3984 3.3594-12.32 0.55859-4.4805-3.3594-4.4805-10.078-0.55859-14 11.762-11.762 24.078-22.961 35.84-34.719 3.3594-3.3594 9.5195-4.4805 12.879-0.55859 11.762 11.762 23.52 23.52 34.719 35.84 3.9219 3.9219 3.3594 12.32-2.2383 15.121-3.3594 1.1211-7.8398 1.1211-10.078-1.6797-6.7188-6.7188-12.879-14-19.602-20.719v86.238c0.55469 2.7969 1.1172 5.0352-0.5625 7.2773z" />
	</g>
</svg>
