<svg width="700pt" height="700pt" version="1.1" viewBox="0 0 700 700" xmlns="http://www.w3.org/2000/svg">
 <g>
  <path d="m426.72 103.6c17.922-3.3594 36.398-6.1602 54.32-7.8398 11.199-1.1211 22.961 2.2383 31.922 8.9609 10.641 7.8398 17.922 20.16 20.16 33.602 8.9609-0.55859 17.922 1.6797 25.762 6.1602 11.199 6.1602 19.039 17.359 22.961 29.121 1.6797 4.4805 2.2383 9.5195 2.2383 14.559v133.84c-0.55859 7.2812-1.6797 14.559-5.0391 21.281-5.0391 11.762-14.559 21.281-26.879 26.32-3.9219 1.6797-8.3984 2.8008-12.32 3.3594-31.922 4.4805-63.281 10.078-95.199 15.121-1.6797-6.1602-1.1211-12.32-1.1211-18.48 0-2.2383 0.55859-5.0391 1.1211-7.2812 28.559-5.0391 57.68-9.5195 86.238-14 4.4805-0.55859 9.5195-1.1211 13.441-3.3594 8.3984-4.4805 13.441-14 13.441-22.961v-124.32c0-5.6016 0.55859-11.762-1.1211-16.801-2.2383-8.3984-9.5195-15.68-17.922-16.801-3.9219-0.55859-8.3984 0-12.32 0.55859-32.48 3.9219-64.398 10.078-96.879 16.238-17.922 3.9219-35.84 7.2812-53.762 11.762-34.719 7.2812-69.441 13.441-104.72 16.801-17.359 1.6797-35.281 2.8008-52.641 2.2383-5.0391 0-10.078 2.2383-14 5.6016-5.6016 5.0391-8.9609 12.879-8.9609 20.16v119.28c0 2.8008 0 5.6016 0.55859 7.8398 1.1211 6.7188 4.4805 12.879 9.5195 16.801 3.3594 2.8008 7.2812 4.4805 11.762 4.4805 17.359 1.1211 35.281 1.1211 52.641 0.55859 18.48-1.1211 36.961-2.8008 54.879-5.0391 0.55859 8.3984 0.55859 17.359-0.55859 25.762-33.039 3.9219-66.078 6.7188-99.121 5.0391-6.1602-0.55859-12.879-0.55859-19.039-2.2383-10.641-2.8008-20.16-10.078-26.32-19.039-4.4805-6.1602-7.2812-14-8.9609-21.281-5.0391-0.55859-9.5195-0.55859-14.559-1.6797-12.879-3.3594-23.52-12.32-29.68-24.078-3.9219-7.2812-6.1602-16.238-6.7188-24.641l-0.003906-124.89c0-2.8008 0.55859-6.1602 0.55859-8.9609 2.2383-12.32 8.9609-24.078 18.48-32.48 7.8398-6.1602 18.48-10.078 28.559-10.078 24.078 0.55859 48.719-1.1211 72.801-4.4805 26.879-3.3594 53.762-8.3984 80.078-14 36.402-7.2812 71.125-14.559 106.4-20.719zm1.6797 25.199c-36.398 6.1602-72.238 14-108.08 21.84-29.121 6.1602-58.238 11.199-87.922 14.559-20.16 2.2383-39.762 3.3594-59.922 3.3594-2.8008 0-5.0391 0-7.8398 0.55859-7.8398 2.2383-14 8.9609-16.238 16.801-1.6797 5.6016-1.1211 11.199-1.1211 16.801v109.76c0 3.3594 0 6.7188 0.55859 10.078 1.1211 6.7188 5.0391 13.441 11.199 17.359 3.9219 2.2383 8.3984 3.3594 12.879 3.3594v-106.96c0-14.559 6.1602-29.121 17.359-39.199 8.3984-7.2812 19.039-11.762 30.238-11.762 22.961 0.55859 45.922-1.1211 68.879-3.9219 21.281-2.8008 42-6.1602 62.719-10.078 16.238-3.3594 33.039-7.2812 49.281-10.641 35.84-7.8398 71.68-14.559 108.08-20.16-1.1211-6.7188-5.0391-12.32-10.078-16.238-3.9219-2.8008-9.5195-4.4805-14-3.9219-19.59 2.2461-37.512 5.6055-55.992 8.4062z"/>
  <path d="m525.84 190.96c3.3594-0.55859 7.2812 0 9.5195 2.8008 2.8008 3.9219 1.6797 10.078-2.2383 12.32-1.1211 1.1211-2.8008 1.1211-4.4805 1.1211-17.922 2.8008-35.84 5.0391-53.199 8.3984-2.8008 0.55859-5.6016 0-7.8398-1.6797-2.2383-1.6797-3.3594-5.0391-2.8008-7.8398 0.55859-3.3594 2.8008-6.1602 6.1602-6.7188 17.918-3.3633 36.398-5.6016 54.879-8.4023z"/>
  <path d="m378 237.44c14-1.6797 28.559 3.3594 38.641 12.879 5.0391 5.0391 9.5195 11.762 11.762 18.48 3.3594 9.5195 3.3594 20.16 0 29.68-3.3594 10.641-11.199 20.16-21.281 25.762-8.9609 5.0391-19.602 7.2812-29.68 5.6016-14-1.6797-26.879-10.078-33.602-22.398-8.3984-13.441-8.9609-31.359-1.6797-45.359 6.7188-12.887 20.719-22.406 35.84-24.645zm1.6797 16.797c-11.199 1.6797-21.281 9.5195-24.641 20.16-2.2383 6.7188-2.2383 14.559 0.55859 21.281 2.8008 6.7188 7.2812 11.762 13.441 15.121 5.6016 3.3594 12.32 4.4805 18.48 3.3594 6.1602-0.55859 11.762-3.3594 16.238-7.2812 5.0391-4.4805 8.3984-10.641 10.078-16.801 1.1211-6.7188 0.55859-14-2.8008-19.602-2.8008-6.1602-7.8398-10.641-14-14-5.0352-2.2383-11.195-3.3555-17.355-2.2383z"/>
  <path d="m282.24 346.64c2.2383 0 4.4805-0.55859 7.2812-0.55859 5.0391 0.55859 8.3984 6.7188 6.7188 11.199-1.1211 3.3594-4.4805 5.6016-7.8398 5.6016-18.48 1.1211-36.961 1.6797-55.441 1.1211-5.0391 0-8.9609-5.6016-7.8398-10.641 1.1211-3.9219 4.4805-6.7188 8.3984-6.7188 15.684 1.1172 32.484 1.1172 48.723-0.003906z"/>
  <path d="m376.88 355.6c1.6797-3.9219 5.6016-6.1602 9.5195-6.1602 4.4805 0.55859 8.3984 4.4805 8.3984 9.5195v40.879 50.398c7.2812-6.7188 14.559-14 21.84-20.719 3.3594-3.3594 8.9609-3.3594 12.32-0.55859 4.4805 3.3594 4.4805 10.078 0.55859 14-12.32 12.32-25.199 24.078-37.52 36.398-1.6797 1.6797-3.9219 2.8008-6.1602 2.8008h-1.6797c-2.8008 0-5.0391-1.6797-6.7188-3.9219-11.762-11.762-23.52-24.078-34.719-35.84-3.3594-3.9219-2.8008-10.641 1.1211-14 2.8008-2.2383 7.2812-2.2383 10.641-0.55859 1.1211 0.55859 2.2383 2.2383 3.3594 3.3594 6.1602 6.1602 12.32 12.879 18.48 19.039v-47.039-42c0-1.6797 0-3.3594 0.55859-5.5977z"/>
 </g>
</svg>
